<svg width="16" height="16" viewBox="0 0 16 16" fill="none" xmlns="http://www.w3.org/2000/svg">
<path fill-rule="evenodd" clip-rule="evenodd" d="M4.89987 1.3135C4.85463 1.12942 4.68956 1 4.5 1C4.31044 1 4.14537 1.12942 4.10013 1.3135L4.02601 1.61514C3.72875 2.82477 2.77555 3.76386 1.56161 4.04303L1.31948 4.09871C1.1325 4.14171 1 4.30814 1 4.5C1 4.69186 1.1325 4.85829 1.31948 4.90129L1.56161 4.95697C2.77555 5.23614 3.72875 6.17523 4.02601 7.38486L4.10013 7.6865C4.14537 7.87058 4.31044 8 4.5 8C4.68956 8 4.85463 7.87058 4.89987 7.6865L4.97399 7.38486C5.27125 6.17523 6.22445 5.23614 7.43839 4.95697L7.68052 4.90129C7.8675 4.85829 8 4.69186 8 4.5C8 4.30814 7.8675 4.14171 7.68052 4.09871L7.43839 4.04303C6.22445 3.76386 5.27125 2.82477 4.97399 1.61514L4.89987 1.3135Z" fill="#3C3C3C"/>
<path fill-rule="evenodd" clip-rule="evenodd" d="M10.0444 4.18614C9.99568 4.00682 9.83288 3.88235 9.64706 3.88235C9.46123 3.88235 9.29843 4.00682 9.2497 4.18614L8.7031 6.19759C8.4028 7.30268 7.55092 8.173 6.45251 8.49687L4.58943 9.04622C4.41432 9.09785 4.29412 9.25862 4.29412 9.44118C4.29412 9.62373 4.41432 9.7845 4.58943 9.83613L6.45251 10.3855C7.55092 10.7094 8.4028 11.5797 8.7031 12.6848L9.2497 14.6962C9.29843 14.8755 9.46123 15 9.64706 15C9.83288 15 9.99568 14.8755 10.0444 14.6962L10.591 12.6848C10.8913 11.5797 11.7432 10.7094 12.8416 10.3855L14.7047 9.83613C14.8798 9.7845 15 9.62373 15 9.44118C15 9.25862 14.8798 9.09785 14.7047 9.04622L12.8416 8.49687C11.7432 8.173 10.8913 7.30268 10.591 6.19759L10.0444 4.18614Z" fill="#3C3C3C"/>
</svg>
