<svg xmlns="http://www.w3.org/2000/svg" width="16" height="16" viewBox="0 0 16 16"><path fill-rule="evenodd" d="M4.9 1.314a.412.412 0 0 0-.8 0l-.074.301a3.3 3.3 0 0 1-2.464 2.428l-.243.056a.412.412 0 0 0 0 .802l.243.056a3.3 3.3 0 0 1 2.464 2.428l.074.301a.412.412 0 0 0 .8 0l.074-.301a3.3 3.3 0 0 1 2.464-2.428l.243-.056a.412.412 0 0 0 0-.802l-.243-.056a3.3 3.3 0 0 1-2.464-2.428zm5.144 2.872a.412.412 0 0 0-.794 0l-.547 2.012a3.3 3.3 0 0 1-2.25 2.299l-1.864.55a.412.412 0 0 0 0 .79l1.864.549a3.3 3.3 0 0 1 2.25 2.299l.547 2.011a.412.412 0 0 0 .794 0l.547-2.011a3.3 3.3 0 0 1 2.25-2.3l1.864-.549a.412.412 0 0 0 0-.79l-1.863-.55a3.3 3.3 0 0 1-2.251-2.298z"/></svg>