<svg xmlns="http://www.w3.org/2000/svg" width="24" height="24" viewBox="0 0 24 24"><path fill-rule="evenodd" d="M8.014 3.403a.53.53 0 0 0-1.028 0l-.095.388a4.24 4.24 0 0 1-3.169 3.121l-.311.072a.53.53 0 0 0 0 1.032l.311.072a4.24 4.24 0 0 1 3.169 3.121l.095.388a.53.53 0 0 0 1.028 0l.095-.388a4.24 4.24 0 0 1 3.169-3.121l.311-.072a.53.53 0 0 0 0-1.032l-.311-.072a4.24 4.24 0 0 1-3.169-3.121zm6.615 3.693a.53.53 0 0 0-1.022 0l-.703 2.587a4.24 4.24 0 0 1-2.894 2.956l-2.395.706a.53.53 0 0 0 0 1.016l2.395.706a4.24 4.24 0 0 1 2.894 2.956l.703 2.586a.53.53 0 0 0 1.022 0l.702-2.586a4.24 4.24 0 0 1 2.894-2.956l2.395-.706a.53.53 0 0 0 0-1.016l-2.395-.706a4.24 4.24 0 0 1-2.894-2.956z"/></svg>