<svg xmlns="http://www.w3.org/2000/svg" width="32" height="32" viewBox="0 0 32 32"><path fill-rule="evenodd" d="M10.686 4.537a.706.706 0 0 0-1.371 0l-.128.518a5.66 5.66 0 0 1-4.224 4.162l-.415.095a.706.706 0 0 0 0 1.376l.415.095a5.66 5.66 0 0 1 4.224 4.163l.128.517a.706.706 0 0 0 1.37 0l.128-.518a5.66 5.66 0 0 1 4.224-4.162l.415-.095a.706.706 0 0 0 0-1.376l-.415-.095a5.66 5.66 0 0 1-4.224-4.162zm8.819 4.925a.706.706 0 0 0-1.363 0l-.937 3.448a5.66 5.66 0 0 1-3.858 3.942l-3.194.942a.706.706 0 0 0 0 1.354l3.194.941a5.66 5.66 0 0 1 3.858 3.942l.937 3.448a.706.706 0 0 0 1.363 0l.937-3.448a5.66 5.66 0 0 1 3.858-3.942l3.194-.941a.706.706 0 0 0 0-1.354l-3.194-.942a5.66 5.66 0 0 1-3.858-3.942z"/></svg>