<svg width="32" height="32" viewBox="0 0 32 32" fill="none" xmlns="http://www.w3.org/2000/svg">
<path fill-rule="evenodd" clip-rule="evenodd" d="M10.6855 4.53743C10.6079 4.22186 10.325 4 10 4C9.67504 4 9.39206 4.22186 9.31451 4.53743L9.18744 5.05452C8.67786 7.12818 7.04379 8.73804 4.96276 9.21662L4.54768 9.31207C4.22715 9.38579 4 9.6711 4 10C4 10.3289 4.22715 10.6142 4.54768 10.6879L4.96276 10.7834C7.04379 11.262 8.67786 12.8718 9.18744 14.9455L9.31451 15.4626C9.39206 15.7781 9.67504 16 10 16C10.325 16 10.6079 15.7781 10.6855 15.4626L10.8126 14.9455C11.3221 12.8718 12.9562 11.262 15.0372 10.7834L15.4523 10.6879C15.7729 10.6142 16 10.3289 16 10C16 9.6711 15.7729 9.38579 15.4523 9.31207L15.0372 9.21662C12.9562 8.73804 11.3221 7.12818 10.8126 5.05452L10.6855 4.53743Z" fill="#3C3C3C"/>
<path fill-rule="evenodd" clip-rule="evenodd" d="M19.5047 9.46195C19.4212 9.15454 19.1421 8.94118 18.8235 8.94118C18.505 8.94118 18.2259 9.15454 18.1424 9.46195L17.2053 12.9102C16.6905 14.8046 15.2301 16.2966 13.3472 16.8518L10.1533 17.7935C9.85312 17.882 9.64706 18.1576 9.64706 18.4706C9.64706 18.7835 9.85312 19.0591 10.1533 19.1477L13.3472 20.0894C15.2301 20.6446 16.6905 22.1366 17.2053 24.031L18.1424 27.4792C18.2259 27.7866 18.505 28 18.8235 28C19.1421 28 19.4212 27.7866 19.5047 27.4792L20.4417 24.031C20.9565 22.1366 22.4169 20.6446 24.2999 20.0894L27.4938 19.1477C27.7939 19.0591 28 18.7835 28 18.4706C28 18.1576 27.7939 17.882 27.4938 17.7935L24.2999 16.8518C22.4169 16.2966 20.9565 14.8046 20.4417 12.9102L19.5047 9.46195Z" fill="#3C3C3C"/>
</svg>
