<svg width="24" height="24" viewBox="0 0 24 24" fill="none" xmlns="http://www.w3.org/2000/svg">
<path fill-rule="evenodd" clip-rule="evenodd" d="M8.01412 3.40307C7.95595 3.16639 7.74372 3 7.5 3C7.25628 3 7.04404 3.16639 6.98588 3.40307L6.89058 3.79089C6.5084 5.34613 5.28284 6.55353 3.72207 6.91246L3.41076 6.98406C3.17036 7.03934 3 7.25333 3 7.5C3 7.74667 3.17036 7.96066 3.41076 8.01594L3.72207 8.08754C5.28284 8.44647 6.5084 9.65387 6.89058 11.2091L6.98588 11.5969C7.04404 11.8336 7.25628 12 7.5 12C7.74372 12 7.95595 11.8336 8.01412 11.5969L8.10942 11.2091C8.4916 9.65387 9.71715 8.44647 11.2779 8.08754L11.5892 8.01594C11.8296 7.96066 12 7.74667 12 7.5C12 7.25333 11.8296 7.03934 11.5892 6.98406L11.2779 6.91246C9.71716 6.55353 8.4916 5.34613 8.10942 3.79089L8.01412 3.40307Z" fill="#3C3C3C"/>
<path fill-rule="evenodd" clip-rule="evenodd" d="M14.6285 7.09646C14.5659 6.86591 14.3566 6.70588 14.1176 6.70588C13.8787 6.70588 13.6694 6.86591 13.6068 7.09646L12.904 9.68262C12.5179 11.1034 11.4226 12.2224 10.0104 12.6388L7.61498 13.3451C7.38984 13.4115 7.23529 13.6182 7.23529 13.8529C7.23529 14.0877 7.38984 14.2944 7.61498 14.3607L10.0104 15.067C11.4226 15.4835 12.5179 16.6024 12.904 18.0233L13.6068 20.6094C13.6694 20.84 13.8787 21 14.1176 21C14.3566 21 14.5659 20.84 14.6285 20.6094L15.3313 18.0233C15.7174 16.6024 16.8127 15.4835 18.2249 15.067L20.6203 14.3607C20.8455 14.2944 21 14.0877 21 13.8529C21 13.6182 20.8455 13.4115 20.6203 13.3451L18.2249 12.6388C16.8127 12.2224 15.7174 11.1034 15.3313 9.68262L14.6285 7.09646Z" fill="#3C3C3C"/>
</svg>
