<svg xmlns="http://www.w3.org/2000/svg" viewBox="0 0 32 32" width="40" height="40" fill="none">
    <path fill="#2545FF" d="M25.17 0H6.83A6.83 6.83 0 0 0 0 6.83v18.34A6.83 6.83 0 0 0 6.83 32h18.34A6.83 6.83 0 0 0 32 25.17V6.83A6.83 6.83 0 0 0 25.17 0Z"/>
    <path fill="#F0E9E1" d="M25.98 14.68c-.235-.305-.293-.872-.141-1.227.842-1.967.39-6.54-3.921-6.54-3.277 0-4.242 1.795-5.918 1.865-1.673-.07-2.569-1.866-5.918-1.866-4.311 0-4.763 4.574-3.921 6.54.152.356.094.923-.142 1.228-1.74 2.264-4.156 10.33 9.882 10.405h.192c14.039-.077 11.622-8.144 9.882-10.408l.006.003Zm-3.474-5.998c1.034 0 1.87 1.197 1.87 2.672 0 1.476-.836 2.673-1.87 2.673-1.035 0-1.871-1.197-1.871-2.672 0-1.476.836-2.673 1.87-2.673Zm-3.454 5.634c.16-.16.45-.126.65.072.198.198.232.49.072.65-.16.16-.449.125-.65-.072-.197-.198-.232-.49-.072-.65Zm-6.374.072c.197-.198.489-.232.65-.072.16.16.125.45-.073.65-.198.197-.49.232-.65.072-.16-.16-.125-.45.073-.65ZM9.87 8.682c1.034 0 1.871 1.197 1.871 2.672 0 1.476-.837 2.673-1.871 2.673S8 12.83 8 11.355c0-1.476.837-2.673 1.871-2.673Zm15.6 9.742c-2.171 2.326-4.903 3.323-9.182 3.352-.032.003-.065 0-.097 0h-.096c-4.28-.032-7.01-1.026-9.181-3.354-.195-.209.045-.51.307-.393 2.761 1.243 4.662 1.253 8.973 1.253 4.309 0 6.212-.01 8.973-1.253.262-.118.503.184.307.393l-.005.002Z"/>
</svg>
